<svg width="108" height="117" viewBox="0 0 108 117" fill="none" xmlns="http://www.w3.org/2000/svg">
<g filter="url(#filter0_d_1_76)">
<path d="M53.9877 10.5985L73.0783 21.0578L82.7581 15.7702L53.9877 0L5.93109 26.3455L15.562 31.6331L53.9877 10.5985Z" fill="url(#paint0_linear_1_76)"/>
<path d="M92.3891 21.0576L53.9879 42.0923L34.8972 31.6329L25.2419 36.9206L53.9879 52.6675L102.069 26.3453L92.3891 21.0576Z" fill="url(#paint1_linear_1_76)"/>
<path d="M13.6553 56.4483L4 51.1606V82.6546L52.0566 109V98.4248L13.6553 77.367V56.4483Z" fill="url(#paint2_linear_1_76)"/>
<path d="M4 40.5846L42.4013 61.6192V82.5379L52.0566 87.8487V56.3316L4 30.0093V40.5846Z" fill="url(#paint3_linear_1_76)"/>
<path d="M84.6893 51.1603V40.585L55.9189 56.3319V82.6658V109L65.5743 103.712V61.6196L84.6893 51.1603Z" fill="url(#paint4_linear_1_76)"/>
<path d="M94.3202 35.2969V77.3662L75.2296 87.8487V98.424L104 82.6538V30.0093L94.3202 35.2969Z" fill="url(#paint5_linear_1_76)"/>
</g>
<defs>
<filter id="filter0_d_1_76" x="0" y="0" width="108" height="117" filterUnits="userSpaceOnUse" color-interpolation-filters="sRGB">
<feFlood flood-opacity="0" result="BackgroundImageFix"/>
<feColorMatrix in="SourceAlpha" type="matrix" values="0 0 0 0 0 0 0 0 0 0 0 0 0 0 0 0 0 0 127 0" result="hardAlpha"/>
<feOffset dy="4"/>
<feGaussianBlur stdDeviation="2"/>
<feComposite in2="hardAlpha" operator="out"/>
<feColorMatrix type="matrix" values="0 0 0 0 0 0 0 0 0 0 0 0 0 0 0 0 0 0 0.25 0"/>
<feBlend mode="normal" in2="BackgroundImageFix" result="effect1_dropShadow_1_76"/>
<feBlend mode="normal" in="SourceGraphic" in2="effect1_dropShadow_1_76" result="shape"/>
</filter>
<linearGradient id="paint0_linear_1_76" x1="83" y1="16" x2="6.00001" y2="26" gradientUnits="userSpaceOnUse">
<stop stop-color="#3A63DD"/>
<stop offset="1" stop-color="#9DD5F7"/>
<stop offset="1" stop-color="#9DD5F7"/>
</linearGradient>
<linearGradient id="paint1_linear_1_76" x1="102" y1="26.4998" x2="25" y2="36.9998" gradientUnits="userSpaceOnUse">
<stop stop-color="#9DD5F7"/>
<stop offset="1" stop-color="#3A63DD"/>
</linearGradient>
<linearGradient id="paint2_linear_1_76" x1="4" y1="51.0001" x2="52" y2="109" gradientUnits="userSpaceOnUse">
<stop stop-color="#3A63DD"/>
<stop offset="1" stop-color="#9DD5F7"/>
</linearGradient>
<linearGradient id="paint3_linear_1_76" x1="4" y1="29.9998" x2="52" y2="87.9998" gradientUnits="userSpaceOnUse">
<stop stop-color="#9DD5F7"/>
<stop offset="1" stop-color="#3A63DD"/>
</linearGradient>
<linearGradient id="paint4_linear_1_76" x1="85" y1="40.9999" x2="56" y2="109" gradientUnits="userSpaceOnUse">
<stop stop-color="#3A63DD"/>
<stop offset="1" stop-color="#9DD5F7"/>
</linearGradient>
<linearGradient id="paint5_linear_1_76" x1="104" y1="29.9998" x2="75" y2="97.9998" gradientUnits="userSpaceOnUse">
<stop stop-color="#9DD5F7"/>
<stop offset="1" stop-color="#3A63DD"/>
</linearGradient>
</defs>
</svg>
